<?xml version="1.0" standalone="no"?>
<!DOCTYPE svg PUBLIC "-//W3C//DTD SVG 20010904//EN"
 "http://www.w3.org/TR/2001/REC-SVG-20010904/DTD/svg10.dtd">
<svg version="1.0" xmlns="http://www.w3.org/2000/svg"
 width="192.000000pt" height="43.000000pt" viewBox="0 0 192.000000 43.000000"
 preserveAspectRatio="xMidYMid meet">
<metadata>
Created by potrace 1.15, written by Peter Selinger 2001-2017
</metadata>
<g transform="translate(0.000000,43.000000) scale(0.100000,-0.100000)"
fill="#000000" stroke="none">
<path d="M755 407 c-44 -20 -102 -90 -115 -139 -36 -131 64 -261 200 -261 115
0 201 81 208 196 4 77 -24 138 -87 182 -35 24 -53 30 -109 32 -41 2 -79 -2
-97 -10z"/>
<path d="M355 356 c-92 -41 -120 -165 -54 -241 39 -44 78 -59 140 -53 119 12
179 157 102 248 -48 58 -121 76 -188 46z"/>
<path d="M64 311 c-34 -15 -64 -60 -64 -98 0 -50 54 -103 105 -103 52 0 105
53 105 104 0 69 -83 124 -146 97z"/>
<path d="M1170 275 c0 -11 11 -15 39 -15 51 0 61 -16 15 -23 -20 -3 -42 -11
-50 -18 -17 -14 -18 -51 -2 -67 16 -16 90 -16 106 0 19 19 15 102 -6 121 -24
22 -102 23 -102 2z"/>
<path d="M1470 275 c0 -11 11 -15 39 -15 22 0 43 -4 46 -10 3 -6 -5 -10 -19
-10 -48 0 -76 -17 -76 -48 0 -39 17 -52 67 -52 50 0 63 17 63 79 0 30 -6 44
-22 55 -30 21 -98 21 -98 1z"/>
<path d="M1610 215 l0 -75 39 0 c53 0 91 31 91 75 0 44 -38 75 -91 75 l-39 0
0 -75z"/>
<path d="M1786 269 c-34 -27 -36 -79 -4 -109 52 -48 147 -4 134 63 -12 63 -78
87 -130 46z"/>
</g>
</svg>
